# xmcd
#
# Track frame offsets:
#   150
#   20823
#   36087
#   65764
#   89319
#   110031
#   127119
#   147964
#   165398
#   208443
#   232819
#   251899
#   270280
#   285416
#   318244
#
# Disc length: 4483 seconds
#
# Revision: 0
# Processed by: cddbd v1.5.1PL0 Copyright (c) Steve Scherf et al.
# Submitted via: uFREEDB 1.6.0
#
DISCID=de11810f
DTITLE=Various Artist - Blue Nights
DYEAR=1900
DGENRE=Blues
TTITLE0=Last Goodbye - Kenny Wayne Shepherd
TTITLE1=Dark Angel - Rob Tononi Power Blues Rock
TTITLE2=Voodoo River - Moon Martin
TTITLE3=All The King's Men - Roy Cox and the Blues Knights
TTITLE4=Got Yourself To Blame - Rob Tognoni Power Blues Ro
TTITLE5=I Had It All Wrong - Blue By Nature
TTITLE6=In The Scheme Of Things - Rob Tognoni Power Blues 
TTITLE7=Jim Beam Blues - Rob Tognoni Power Blues Rock
TTITLE8=VooDoo Child - Kenny Wayne Shepherd Band
TTITLE9=Lonely - Steve Brown
TTITLE10=Stones And Colours - Rob Tognoni Power Blues Rock
TTITLE11=The Sinner - Rob Tognoni Power Blues Rock
TTITLE12=Times Change - Rob Tognoni Power Blues Rock
TTITLE13=Ain't That The Blues - Reno Head
TTITLE14=Was - Kenny Wayne Shepherd Band
EXTD=
EXTT0=
EXTT1=
EXTT2=
EXTT3=
EXTT4=
EXTT5=
EXTT6=
EXTT7=
EXTT8=
EXTT9=
EXTT10=
EXTT11=
EXTT12=
EXTT13=
EXTT14=
PLAYORDER=
